<?xml version="1.0" encoding="UTF-8"?>
<svg id="Layer_2" data-name="Layer 2" xmlns="http://www.w3.org/2000/svg" viewBox="0 0 628.61 251.45">
  <defs>
    <style>
      .cls-1 {
        fill: #41a2d5;
      }

      .cls-2 {
        fill: #0c023c;
      }
    </style>
  </defs>
  <g id="Layer_1-2" data-name="Layer 1">
    <g>
      <g>
        <path class="cls-2" d="M628.47,97.74l-25.2-57.27c-.88-2.03-2.57-3.24-4.86-3.24l-104.73-.02c-2.45,0-4.07,1.32-5.01,3.47l-25.09,57.02c-1.61,14.59,10.08,26.37,24.58,25.87,7.52-.27,14.39-2.5,19.2-8.71,4.99,6.41,12,8.66,19.5,8.66s14.4-2.66,19.15-8.6c5.07,6.27,12.03,8.69,19.76,8.6,7.48-.11,14.1-2.56,18.91-8.63,4.81,6.21,11.74,8.42,19.25,8.66,14.45.47,26.1-11.21,24.53-25.82ZM487.76,113.19c-5.97-.06-11.39-2.88-13.29-8.85l26.92.03c-1.75,6.08-7.55,8.86-13.63,8.82ZM503.16,94.02l-26.55-.06,20.36-46.32h16.37l-10.17,46.38ZM526.5,113.19c-5.97-.05-11.43-2.86-13.34-8.85l26.95.03c-1.78,6.06-7.55,8.86-13.61,8.82ZM540.84,94.01l-27.06.02,10.19-46.38,16.87-.02v46.38ZM551.23,47.63l16.84.03,10.17,46.27-27.01.12v-46.42ZM565.23,113.19c-5.97-.05-11.47-2.86-13.37-8.85l26.94.02c-1.78,6.08-7.51,8.86-13.57,8.83ZM578.71,47.64l16.34-.03,20.36,46.3-26.51.14-10.19-46.41ZM603.97,113.19c-6-.03-11.5-2.82-13.38-8.85l26.92.02c-1.8,6.09-7.48,8.85-13.54,8.83Z"/>
        <path class="cls-2" d="M603.67,130.81l-.11,103.26c0,9.41-8.15,17.39-17.5,17.37l-80.38-.03c-9.21,0-17.21-8.13-17.21-17.34l-.11-103.26c3.73.18,6.97-.41,10.41-1.36v103.84c.11,4.29,3.24,7.81,7.66,7.81h79.21c4.31,0,7.32-3.38,7.61-7.54v-104.01c3.5.72,6.73,1.51,10.4,1.25Z"/>
        <path class="cls-2" d="M570.17,28.95l.02-7.57c.02-5.86-4.37-11.02-10.58-11.04l-26.87-.03c-6.14,0-10.83,4.84-10.87,10.87l-.05,7.8h-10.32l.02-8.72C511.53,9.29,520.82-.02,531.96,0l28.53.03c10.83.02,19.46,9.24,20.02,19.84l.06,9.11-10.41-.03Z"/>
        <path class="cls-2" d="M570.69,228.09c.06,1.34-.78,3.12-2.76,3.12l-41.77.02c-1.86,0-3-1.63-2.86-3.09.14-1.72,1.32-2.83,3.21-2.83l41.25.02c1.75.02,2.83,1.32,2.92,2.77Z"/>
        <polygon class="cls-1" points="540.84 94.01 513.78 94.02 523.97 47.64 540.83 47.63 540.84 94.01"/>
        <polygon class="cls-1" points="578.24 93.92 551.23 94.05 551.22 47.63 568.07 47.65 578.24 93.92"/>
        <polygon class="cls-1" points="615.41 93.92 588.9 94.05 578.7 47.65 595.05 47.61 615.41 93.92"/>
        <polygon class="cls-1" points="503.16 94.03 476.61 93.97 496.96 47.65 513.33 47.64 503.16 94.03"/>
        <path class="cls-1" d="M540.11,104.37c-1.78,6.07-7.56,8.86-13.62,8.82-5.96-.05-11.44-2.87-13.33-8.85l26.95.03Z"/>
        <path class="cls-1" d="M617.51,104.36c-1.8,6.09-7.48,8.85-13.54,8.83s-11.5-2.82-13.37-8.84h26.92Z"/>
        <path class="cls-1" d="M501.4,104.37c-1.75,6.08-7.56,8.87-13.63,8.81s-11.39-2.87-13.29-8.85l26.92.03Z"/>
        <path class="cls-1" d="M578.81,104.36c-1.78,6.07-7.52,8.86-13.57,8.82s-11.47-2.86-13.36-8.84l26.93.02Z"/>
      </g>
      <g>
        <path class="cls-2" d="M66.4,200.21h-16.16v-24.12l-16.38,23.1h-.11l-16.42-23.1v24.12H1.17v-61.42h6.49l26.12,35.79,26.12-35.79h6.49v61.42Z"/>
        <path class="cls-2" d="M96.73,153.32c6,0,10.91,2.19,14.38,6.19l.68-4.61h14.12v45.3h-14.12l-.72-4.68c-3.36,3.96-8.23,6.27-14.35,6.27-13.63,0-22.57-11.25-22.57-24.24s9.32-24.24,22.57-24.24ZM100.12,187.98c6,0,10.53-4.34,10.53-10.53s-4.79-10.34-10.49-10.34c-6.19,0-10.76,4.72-10.76,10.38s4.19,10.49,10.72,10.49Z"/>
        <path class="cls-2" d="M181.18,175.71v24.5h-15.25v-24.5c0-6.08-2.6-8.57-7.21-8.57-4.95,0-7.74,3.51-7.74,8.57v24.5h-15.25v-62.29h15.25v20.42c3.4-3.02,7.93-4.83,13.36-4.83,8.46,0,16.84,4.08,16.84,22.2Z"/>
        <path class="cls-2" d="M211.13,153.32c6,0,10.91,2.19,14.38,6.19l.68-4.61h14.12v45.3h-14.12l-.72-4.68c-3.36,3.96-8.23,6.27-14.35,6.27-13.63,0-22.57-11.25-22.57-24.24s9.32-24.24,22.57-24.24ZM214.52,187.98c6,0,10.53-4.34,10.53-10.53s-4.79-10.34-10.49-10.34c-6.19,0-10.76,4.72-10.76,10.38s4.19,10.49,10.72,10.49Z"/>
        <path class="cls-2" d="M265.38,137.92v62.29h-15.25v-62.29h15.25Z"/>
        <path class="cls-2" d="M295.32,153.32c6,0,10.91,2.19,14.38,6.19l.68-4.61h14.12v45.3h-14.12l-.72-4.68c-3.36,3.96-8.23,6.27-14.35,6.27-13.63,0-22.57-11.25-22.57-24.24s9.32-24.24,22.57-24.24ZM298.72,187.98c6,0,10.53-4.34,10.53-10.53s-4.79-10.34-10.49-10.34c-6.19,0-10.76,4.72-10.76,10.38s4.19,10.49,10.72,10.49Z"/>
        <path class="cls-2" d="M337.24,184.96v-16.57h-6.34v-12.23h1.43c4.04,0,6.42-2.23,6.42-6.3v-4.49h13.74v9.55h9.25v13.48h-9.25v15.82c0,3.1,1.81,4.68,4.53,4.68,1.4,0,3.25-.49,4.61-.91v11.44c-2.53.98-6.79,1.55-9.78,1.55-11.14,0-14.61-7.55-14.61-16.01Z"/>
        <path class="cls-2" d="M383.37,137.92v62.29h-15.25v-62.29h15.25Z"/>
        <path class="cls-2" d="M414.56,217.2h-15.86l9.36-20.95-18.31-41.34h16.95l8.72,24.84,11.06-24.84h16.46l-28.39,62.29Z"/>
      </g>
      <g>
        <path class="cls-2" d="M88.45,87.79v12.23h-18.59v-19.72c-.37-4.26-3.74-3.71-5.42-3.71h-23.61c-1.77,0-5.45-.61-5.45,4.47h9.95c8.55,0,17.71,6.51,17.71,15.85s-9.1,17.86-20.32,17.86h-22.39c-11.23,0-20.32-7.94-20.32-19.2v-7.79h13.11v7.76c0,4.08,3.5,6.79,7.21,6.79h22.39c3.71,0,7.33-.09,7.33-4.17,0-2.74-2.53-3.99-4.75-3.99h-24.19c-.91-22.45,5.75-30.7,18.5-30.7h24.22c16.92,0,19.11,6.66,18.71,24.31h5.9ZM29.6,125c0,3.41-2.92,6.18-6.85,6.18s-6.85-2.77-6.85-6.18,2.95-6.18,6.85-6.18,6.85,2.77,6.85,6.18ZM48.77,125c0,3.41-2.92,6.18-6.85,6.18s-6.85-2.77-6.85-6.18,2.95-6.18,6.85-6.18,6.85,2.77,6.85,6.18Z"/>
        <path class="cls-2" d="M110.87,100.02h-23.34v-12.23h23.34v12.23Z"/>
        <path class="cls-2" d="M133.59,100.02h-23.34v-12.23h23.34v12.23Z"/>
        <path class="cls-2" d="M156.32,100.02h-23.34v-12.23h23.34v12.23Z"/>
        <path class="cls-2" d="M179.04,100.02h-23.34v-12.23h23.34v12.23Z"/>
        <path class="cls-2" d="M201.77,100.02h-23.34v-12.23h23.34v12.23Z"/>
        <path class="cls-2" d="M224.5,100.02h-23.34v-12.23h23.34v12.23Z"/>
        <path class="cls-2" d="M248.71,87.79v12.23h-24.83v-12.23h4.17v-45.94h13.02v45.94h7.64Z"/>
        <path class="cls-2" d="M258.24,87.79v-24.28h13.02v36.51h-25.71v-12.23h12.69ZM248.17,52.77c0-3.41,2.95-6.18,6.85-6.18s6.85,2.77,6.85,6.18-2.92,6.18-6.85,6.18-6.85-2.77-6.85-6.18ZM267.33,52.77c0-3.41,2.95-6.18,6.85-6.18s6.85,2.77,6.85,6.18-2.92,6.18-6.85,6.18-6.85-2.77-6.85-6.18Z"/>
        <path class="cls-2" d="M330.04,87.79v12.23h-42.93v-12.23h22.42v-45.94h13.02v45.94h7.49ZM304.24,83.59h-13.02v-41.74h13.02v41.74Z"/>
        <path class="cls-2" d="M395.33,87.79v12.23h-65.9v-12.23h45.82v-3.89c0-3.68-2.77-7.27-6.79-7.27h-31.19v-13.11h31.22c11.23,0,19.17,9.1,19.2,20.29v3.99h7.64Z"/>
        <path class="cls-2" d="M394.71,87.79h5.72c-.06-.58-.09-1.16-.09-1.76,0-10.95,8.98-19.53,20.54-19.53s20.51,8.58,20.51,19.53-8.98,19.53-20.51,19.53c-5.72,0-10.8-2.1-14.48-5.54h-11.68v-12.23ZM420.88,94.27c4.66,0,8.21-3.65,8.21-8.25s-3.56-8.28-8.21-8.28-8.25,3.68-8.25,8.28,3.59,8.25,8.25,8.25Z"/>
      </g>
    </g>
  </g>
</svg>