<?xml version="1.0" encoding="UTF-8"?>
<svg id="Layer_2" data-name="Layer 2" xmlns="http://www.w3.org/2000/svg" viewBox="0 0 148.65 226.29">
  <defs>
    <style>
      .cls-1 {
        fill: #41a2d5;
      }

      .cls-2 {
        fill: #0c023c;
      }
    </style>
  </defs>
  <g id="Layer_1-2" data-name="Layer 1">
    <g>
      <path class="cls-2" d="M148.52,87.96l-22.68-51.54c-.79-1.82-2.32-2.92-4.37-2.92H27.23c-2.21-.01-3.66,1.18-4.51,3.11L.13,87.93c-1.45,13.13,9.07,23.73,22.12,23.28,6.77-.25,12.95-2.25,17.28-7.84,4.49,5.77,10.8,7.8,17.55,7.8s12.96-2.4,17.24-7.74c4.56,5.65,10.83,7.82,17.79,7.74,6.73-.1,12.69-2.3,17.02-7.77,4.33,5.59,10.56,7.58,17.32,7.8,13,.42,23.49-10.09,22.08-23.24ZM21.89,101.87c-5.37-.05-10.25-2.59-11.96-7.96l24.23.03c-1.58,5.47-6.8,7.98-12.26,7.93ZM35.75,84.62l-23.9-.05,18.32-41.68h14.73l-9.15,41.74ZM56.76,101.87c-5.37-.04-10.29-2.58-12-7.96l24.25.03c-1.6,5.45-6.8,7.98-12.25,7.93ZM69.66,84.6h-24.35s9.17-41.73,9.17-41.73h15.18s0,41.73,0,41.73ZM79.01,42.86l15.16.03,9.15,41.64-24.31.11v-41.78ZM91.62,101.87c-5.37-.04-10.32-2.58-12.03-7.96h24.24c-1.6,5.48-6.76,7.99-12.21,7.96ZM103.74,42.88l14.7-.03,18.32,41.67-23.86.12-9.17-41.77ZM126.48,101.87c-5.4-.03-10.35-2.54-12.04-7.96h24.23c-1.62,5.49-6.73,7.98-12.18,7.96Z"/>
      <path class="cls-2" d="M126.2,117.72l-.1,92.93c0,8.47-7.33,15.65-15.74,15.64l-72.34-.03c-8.29,0-15.48-7.32-15.48-15.61l-.1-92.93c3.36.16,6.28-.37,9.37-1.22v93.45c.1,3.86,2.92,7.03,6.89,7.03h71.28c3.88,0,6.59-3.04,6.85-6.78v-93.61c3.15.64,6.06,1.36,9.36,1.12Z"/>
      <path class="cls-2" d="M96.06,26.05v-6.81c.03-5.28-3.92-9.92-9.51-9.93l-24.19-.03c-5.52,0-9.74,4.36-9.78,9.78l-.04,7.02h-9.29v-7.85C43.29,8.36,51.64-.01,61.67,0l25.68.03c9.74.01,17.51,8.32,18.02,17.86l.05,8.19-9.37-.03Z"/>
      <path class="cls-2" d="M96.52,205.27c.05,1.21-.7,2.81-2.48,2.81h-37.59c-1.67.01-2.7-1.45-2.58-2.77.12-1.55,1.19-2.55,2.89-2.55h37.12c1.58.03,2.55,1.21,2.63,2.51Z"/>
      <polygon class="cls-1" points="69.66 84.61 45.31 84.62 54.48 42.88 69.66 42.87 69.66 84.61"/>
      <polygon class="cls-1" points="103.32 84.53 79.01 84.64 79 42.87 94.17 42.89 103.32 84.53"/>
      <polygon class="cls-1" points="136.77 84.52 112.91 84.64 103.74 42.88 118.45 42.85 136.77 84.52"/>
      <polygon class="cls-1" points="35.75 84.62 11.86 84.57 30.17 42.88 44.91 42.88 35.75 84.62"/>
      <path class="cls-1" d="M69.01,93.93c-1.6,5.46-6.8,7.98-12.25,7.94-5.36-.04-10.29-2.58-12-7.96l24.25.02Z"/>
      <path class="cls-1" d="M138.66,93.92c-1.62,5.48-6.73,7.97-12.19,7.95s-10.35-2.54-12.04-7.96h24.22Z"/>
      <path class="cls-1" d="M34.16,93.93c-1.57,5.47-6.81,7.98-12.27,7.93s-10.25-2.59-11.96-7.96l24.23.03Z"/>
      <path class="cls-1" d="M103.83,93.92c-1.6,5.46-6.76,7.98-12.22,7.94-5.37-.03-10.32-2.57-12.02-7.96l24.24.02Z"/>
    </g>
  </g>
</svg>