<?xml version="1.0" encoding="UTF-8"?>
<svg id="Layer_2" data-name="Layer 2" xmlns="http://www.w3.org/2000/svg" viewBox="0 0 628.61 251.45">
  <defs>
    <style>
      .cls-1 {
        fill: #fff;
      }
    </style>
  </defs>
  <g id="Layer_1-2" data-name="Layer 1">
    <g>
      <g>
        <path class="cls-1" d="M628.47,97.73l-25.2-57.26c-.88-2.03-2.57-3.25-4.85-3.25h-104.73c-2.45-.01-4.07,1.31-5.01,3.46l-25.09,57.02c-1.62,14.59,10.08,26.38,24.57,25.87,7.52-.27,14.39-2.49,19.2-8.71,5,6.41,12,8.67,19.51,8.67s14.4-2.67,19.15-8.61c5.07,6.28,12.03,8.7,19.77,8.61,7.47-.11,14.1-2.56,18.91-8.64,4.81,6.22,11.74,8.42,19.24,8.67,14.45.47,26.1-11.21,24.53-25.83ZM500.97,105.59c-.09.22-.18.43-.28.64-.1.21-.21.41-.32.61-.06.09-.11.19-.17.29-.08.15-.17.29-.26.43-.02.03-.05.07-.07.1-.09.13-.18.25-.28.38-.11.15-.23.3-.35.45-.14.17-.28.33-.43.49-.24.26-.49.51-.76.74-.1.09-.2.17-.3.26-.1.08-.2.16-.3.24-.2.16-.4.31-.62.45-.18.12-.36.24-.55.36-.03.02-.06.04-.09.05-.21.13-.42.25-.64.36-1.15.61-2.41,1.05-3.73,1.33-.35.08-.71.15-1.08.2-.36.06-.73.1-1.1.14-.23.02-.46.03-.69.04-.33.02-.66.03-.99.03-.07.01-.13.01-.19.01-.37,0-.74-.02-1.11-.05-.37-.02-.73-.05-1.09-.11-.36-.04-.72-.1-1.08-.17-.32-.06-.64-.14-.96-.22-.08-.02-.15-.04-.23-.06-.26-.07-.5-.14-.75-.23-.28-.09-.55-.19-.81-.3-.14-.05-.28-.11-.42-.17-.09-.04-.18-.08-.26-.12-.18-.08-.37-.16-.54-.26-.02-.01-.03-.02-.05-.02-.3-.16-.59-.32-.87-.5-1.46-.91-2.73-2.11-3.7-3.61-.2-.3-.38-.61-.55-.94-.13-.24-.25-.49-.36-.75-.12-.26-.22-.52-.32-.79-.08-.18-.14-.36-.2-.55h.01l26.91.03c-.05.19-.11.37-.17.56-.08.23-.16.45-.25.66ZM476.61,93.96l20.35-46.31h0s16.37-.01,16.37-.01l-10.17,46.38-26.55-.06ZM539.01,106.96c-.32.55-.68,1.05-1.07,1.53-.39.47-.81.9-1.27,1.31-.26.23-.54.45-.82.65-.28.2-.57.4-.87.58s-.61.35-.92.51c-.32.16-.64.3-.97.44-.33.13-.66.26-1,.37-.35.11-.69.21-1.04.3-.71.18-1.43.31-2.16.4-.32.04-.65.07-.98.09-.08,0-.16.01-.24.01-.15.01-.3.02-.45.02-.12.01-.24.01-.36.01-.12.01-.24.01-.36.01-1.49-.01-2.95-.2-4.33-.56-.35-.09-.69-.19-1.02-.31-.28-.09-.56-.2-.84-.31-.09-.04-.18-.08-.27-.12-.28-.12-.56-.25-.83-.39-.02-.01-.05-.03-.08-.04-.28-.14-.55-.3-.82-.47-.26-.16-.51-.33-.75-.51-.1-.07-.21-.15-.31-.23-.42-.32-.83-.68-1.2-1.07-.17-.17-.34-.35-.5-.54-.15-.17-.29-.34-.42-.51-.18-.23-.35-.47-.51-.72-.03-.03-.05-.07-.08-.11-.08-.13-.16-.26-.23-.39-.06-.09-.11-.18-.16-.28-.13-.22-.25-.45-.36-.69-.08-.17-.15-.34-.23-.52-.15-.34-.28-.71-.4-1.08h.01l26.94.03c-.06.19-.12.38-.18.56-.24.73-.55,1.41-.92,2.03ZM540.85,94h-.01l-26.74.02h-.31l5.09-23.19,5.09-23.19h.01l16.87-.02v46.38ZM551.23,47.62l16.84.03,10.17,46.27h0s-27.01.13-27.01.13v-46.43ZM578.54,105.15c-.09.28-.21.55-.33.82-.12.25-.24.5-.37.74s-.27.47-.41.7h-.01c-.19.31-.4.6-.61.87-.11.14-.23.28-.35.42-.23.26-.46.51-.71.75-.85.81-1.82,1.49-2.88,2.03-.28.15-.58.29-.88.42-.39.17-.8.32-1.22.46-.33.11-.67.21-1.02.29-.35.09-.7.17-1.06.23-.36.08-.72.13-1.09.17s-.74.08-1.11.1c-.41.03-.83.04-1.25.04-.75,0-1.49-.05-2.21-.15-.33-.04-.66-.09-.99-.16-.08-.01-.15-.03-.23-.04-.27-.05-.53-.11-.79-.18-.06-.02-.13-.03-.19-.05-.32-.09-.64-.18-.95-.29-.31-.1-.61-.21-.9-.33-.39-.16-.76-.34-1.12-.54-.28-.13-.56-.29-.83-.46-.3-.18-.58-.37-.86-.58-.28-.2-.55-.42-.81-.65-.26-.23-.51-.47-.75-.72-.17-.19-.34-.38-.5-.58-.26-.3-.51-.63-.73-.97-.08-.11-.15-.22-.22-.34-.14-.23-.28-.47-.41-.71-.35-.65-.64-1.35-.88-2.1h.01l26.92.02c-.04.13-.08.27-.12.4-.05.13-.09.26-.14.39ZM578.71,47.64l16.34-.03,20.36,46.3-26.51.14-10.19-46.41ZM617.13,105.46c-.12.29-.25.58-.39.86-.14.28-.29.56-.45.82-.08.13-.15.25-.23.37-.77,1.18-1.74,2.17-2.84,2.97-.21.15-.43.29-.64.43-.22.14-.45.28-.67.4-.22.12-.44.23-.67.34-.93.45-1.93.8-2.97,1.05-.13.03-.26.06-.39.09-.25.06-.5.1-.75.14-.11.02-.22.04-.34.06-.24.04-.47.07-.7.09-.23.03-.47.05-.7.06-.19.02-.39.03-.58.03-.28.02-.56.02-.84.02-.69,0-1.37-.04-2.04-.12-.18-.03-.36-.05-.54-.08-.16-.02-.31-.04-.47-.07-.26-.05-.52-.1-.78-.16-.29-.06-.58-.14-.87-.22-.04,0-.09-.02-.13-.04-.24-.07-.48-.14-.71-.22-.62-.21-1.21-.46-1.78-.76-.3-.16-.6-.32-.89-.5-.01,0-.01,0-.02,0-.22-.14-.44-.28-.65-.43-.21-.14-.42-.3-.62-.47-.09-.06-.17-.14-.26-.21-.18-.15-.35-.31-.52-.47,0-.01-.01-.01-.01-.01-.21-.2-.42-.42-.62-.65-.03-.03-.06-.07-.09-.1-.16-.18-.32-.37-.46-.57-.03-.03-.06-.08-.09-.12-.15-.19-.28-.39-.41-.59-.19-.3-.37-.61-.55-.94-.17-.33-.33-.67-.47-1.02-.1-.24-.19-.48-.27-.73-.05-.12-.09-.24-.13-.36h.01l26.91.02c-.11.38-.24.74-.38,1.1Z"/>
        <path class="cls-1" d="M603.67,130.81l-.11,103.26c0,9.41-8.15,17.39-17.5,17.37l-80.38-.03c-9.21,0-17.21-8.13-17.21-17.34l-.11-103.26c3.73.18,6.97-.41,10.41-1.36v103.84c.11,4.29,3.24,7.81,7.66,7.81h79.21c4.31,0,7.32-3.38,7.61-7.54v-104.01c3.5.72,6.73,1.51,10.4,1.25Z"/>
        <path class="cls-1" d="M570.17,28.95l.02-7.57c.02-5.86-4.37-11.02-10.58-11.04l-26.87-.03c-6.14,0-10.83,4.84-10.87,10.87l-.05,7.8h-10.32l.02-8.72C511.53,9.29,520.82-.02,531.97,0l28.53.03c10.83.02,19.46,9.24,20.02,19.84l.06,9.11-10.41-.03Z"/>
        <path class="cls-1" d="M570.69,228.09c.06,1.34-.78,3.12-2.76,3.12l-41.77.02c-1.86,0-3-1.63-2.86-3.09.14-1.72,1.32-2.83,3.21-2.83l41.25.02c1.75.02,2.83,1.32,2.92,2.77Z"/>
        <polygon class="cls-1" points="518.88 70.83 513.79 94.02 513.78 94.02 518.88 70.83"/>
        <polygon class="cls-1" points="540.84 94 540.84 94.01 514.1 94.02 540.84 94"/>
        <polygon class="cls-1" points="551.23 47.63 551.23 94.04 551.22 47.63 551.23 47.63"/>
        <polygon class="cls-1" points="615.41 93.91 615.41 93.92 588.9 94.05 615.41 93.91"/>
        <polygon class="cls-1" points="513.34 47.64 503.16 94.02 513.33 47.64 513.34 47.64"/>
        <path class="cls-1" d="M537.94,108.49c-.38.47-.81.91-1.27,1.31.46-.41.88-.84,1.27-1.31Z"/>
        <path class="cls-1" d="M537.94,108.49c.39-.48.75-.98,1.07-1.53-.31.55-.67,1.06-1.07,1.53Z"/>
        <path class="cls-1" d="M540.12,104.37c-.06.19-.12.38-.19.56.06-.18.12-.37.18-.56h.01Z"/>
        <path class="cls-1" d="M501.4,104.37c-.05.19-.11.38-.18.56.06-.19.12-.37.17-.56h.01Z"/>
        <path class="cls-1" d="M578.81,104.36c-.04.13-.08.27-.13.4.04-.13.08-.27.12-.4h.01Z"/>
      </g>
      <g>
        <path class="cls-1" d="M59.91,138.79l-26.12,35.78-26.13-35.78H1.17v61.42h16.16v-24.13l16.42,23.11h.11l16.39-23.11v24.13h16.15v-61.42h-6.49Z"/>
        <path class="cls-1" d="M111.79,154.91l-.68,4.6c-3.47-4-8.38-6.19-14.38-6.19-13.25,0-22.58,10.76-22.58,24.24s8.95,24.23,22.58,24.23c6.11,0,10.98-2.3,14.34-6.26l.72,4.68h14.12v-45.3h-14.12ZM100.13,187.98c-6.53,0-10.72-5.06-10.72-10.5s4.56-10.38,10.75-10.38c5.7,0,10.5,4,10.5,10.34s-4.53,10.54-10.53,10.54Z"/>
        <path class="cls-1" d="M164.35,153.51c-5.44,0-9.97,1.81-13.36,4.83v-20.42h-15.26v62.29h15.26v-24.5c0-5.06,2.79-8.57,7.73-8.57,4.61,0,7.21,2.49,7.21,8.57v24.5h15.26v-24.5c0-18.12-8.38-22.2-16.84-22.2Z"/>
        <path class="cls-1" d="M226.19,154.91l-.68,4.6c-3.47-4-8.38-6.19-14.38-6.19-13.25,0-22.57,10.76-22.57,24.24s8.94,24.23,22.57,24.23c6.12,0,10.99-2.3,14.35-6.26l.71,4.68h14.12v-45.3h-14.12ZM214.53,187.98c-6.53,0-10.72-5.06-10.72-10.5s4.57-10.38,10.76-10.38c5.7,0,10.49,4,10.49,10.34s-4.53,10.54-10.53,10.54Z"/>
        <path class="cls-1" d="M250.14,137.92v62.29h15.25v-62.29h-15.25Z"/>
        <path class="cls-1" d="M310.39,154.91l-.68,4.6c-3.47-4-8.38-6.19-14.38-6.19-13.25,0-22.58,10.76-22.58,24.24s8.95,24.23,22.58,24.23c6.11,0,10.98-2.3,14.34-6.26l.72,4.68h14.12v-45.3h-14.12ZM298.73,187.98c-6.53,0-10.72-5.06-10.72-10.5s4.56-10.38,10.75-10.38c5.7,0,10.5,4,10.5,10.34s-4.53,10.54-10.53,10.54Z"/>
        <path class="cls-1" d="M361.74,168.38v-13.47h-9.25v-9.55h-13.74v4.49c0,4.08-2.38,6.3-6.42,6.3h-1.43v12.23h6.34v16.58c0,8.45,3.47,16,14.61,16,2.98,0,7.25-.56,9.78-1.55v-11.43c-1.36.41-3.21.9-4.61.9-2.72,0-4.53-1.58-4.53-4.68v-15.82h9.25Z"/>
        <path class="cls-1" d="M368.13,137.92v62.29h15.25v-62.29h-15.25Z"/>
        <path class="cls-1" d="M426.49,154.91l-11.06,24.84-8.72-24.84h-16.95l18.31,41.33-9.36,20.95h15.85l28.39-62.28h-16.46Z"/>
      </g>
      <g>
        <path class="cls-1" d="M82.55,87.79c.4-17.65-1.8-24.31-18.71-24.31h-24.22c-12.75,0-19.41,8.24-18.5,30.7h24.19c2.22,0,4.74,1.24,4.74,3.98,0,4.08-3.62,4.17-7.33,4.17h-22.39c-3.71,0-7.21-2.71-7.21-6.79v-7.75H0v7.79c0,11.25,9.1,19.19,20.33,19.19h22.39c11.23,0,20.33-8.12,20.33-17.86s-9.16-15.85-17.71-15.85h-9.95c0-5.08,3.68-4.47,5.45-4.47h23.61c1.67,0,5.05-.55,5.41,3.71v19.72h18.59v-12.23h-5.9ZM22.76,118.82c-3.89,0-6.84,2.77-6.84,6.18s2.95,6.17,6.84,6.17,6.85-2.76,6.85-6.17-2.92-6.18-6.85-6.18ZM41.93,118.82c-3.89,0-6.84,2.77-6.84,6.18s2.95,6.17,6.84,6.17,6.85-2.76,6.85-6.17-2.92-6.18-6.85-6.18Z"/>
        <path class="cls-1" d="M87.53,87.79v12.23h23.34v-12.23h-23.34Z"/>
        <path class="cls-1" d="M110.26,87.79v12.23h23.34v-12.23h-23.34Z"/>
        <path class="cls-1" d="M132.99,87.79v12.23h23.33v-12.23h-23.33Z"/>
        <path class="cls-1" d="M155.71,87.79v12.23h23.34v-12.23h-23.34Z"/>
        <path class="cls-1" d="M178.44,87.79v12.23h23.33v-12.23h-23.33Z"/>
        <path class="cls-1" d="M201.16,87.79v12.23h23.34v-12.23h-23.34Z"/>
        <path class="cls-1" d="M241.08,87.79v-45.95h-13.02v45.95h-4.17v12.23h24.83v-12.23h-7.64Z"/>
        <path class="cls-1" d="M258.24,63.51v24.28h-12.69v12.23h25.71v-36.51h-13.02ZM255.01,46.59c-3.89,0-6.84,2.77-6.84,6.18s2.95,6.17,6.84,6.17,6.85-2.77,6.85-6.17-2.92-6.18-6.85-6.18ZM274.18,46.59c-3.89,0-6.84,2.77-6.84,6.18s2.95,6.17,6.84,6.17,6.85-2.77,6.85-6.17-2.92-6.18-6.85-6.18Z"/>
        <path class="cls-1" d="M322.56,87.79v-45.95h-13.02v45.95h-22.43v12.23h42.93v-12.23h-7.48ZM291.22,41.84v41.75h13.02v-41.75h-13.02Z"/>
        <path class="cls-1" d="M387.7,87.79v-3.99c-.03-11.2-7.98-20.29-19.2-20.29h-31.22v13.11h31.19c4.01,0,6.78,3.59,6.78,7.27v3.9h-45.82v12.23h65.9v-12.23h-7.63Z"/>
        <path class="cls-1" d="M420.89,66.49c-11.57,0-20.54,8.58-20.54,19.53,0,.61.03,1.19.09,1.77h-5.72v12.23h11.68c3.68,3.44,8.76,5.54,14.49,5.54,11.53,0,20.5-8.59,20.5-19.54s-8.97-19.53-20.5-19.53ZM420.89,94.27c-4.66,0-8.25-3.65-8.25-8.25s3.59-8.27,8.25-8.27,8.21,3.68,8.21,8.27-3.56,8.25-8.21,8.25Z"/>
      </g>
    </g>
  </g>
</svg>